# File produced by Open Asset Import Library (http://www.assimp.sf.net)
# (assimp v3.2.202087883)

mtllib model_normalized.mtl

# 54 vertex positions
v -0.178861 0.400649 0.152357
v -0.268381 0.221788 0.152357
v -0.268381 0.400649 0.152357
v -0.178861 0.221788 0.152357
v -0.178861 0.221788 -0.205366
v -0.268381 0.221788 -0.205366
v -0.268381 0.021463 0.241877
v -0.268381 0.021463 -0.205366
v -0.268381 0.400649 0.241877
v 0.178861 0.400649 0.152357
v 0.268381 0.400649 0.152357
v 0.268381 0.400649 0.241877
v -0.178861 0.042927 0.152357
v 0.178861 0.042927 0.152357
v 0.178861 0.221788 0.152357
v -0.178861 0.042927 -0.205366
v -0.178861 0.021463 -0.205366
v 0.178861 0.042927 -0.205366
v -0.143089 0.007154 -0.205366
v -0.178861 -0.314796 -0.205366
v 0.143089 0.007154 -0.205366
v 0.143089 -0.279023 -0.205366
v -0.143089 -0.279023 -0.205366
v 0.178861 -0.314796 -0.205366
v 0.178861 0.021463 -0.205366
v 0.268381 0.221788 -0.205366
v 0.178861 0.221788 -0.205366
v 0.268381 0.021463 -0.205366
v 0.268381 0.021463 0.241877
v 0.178861 0.021463 0.152357
v -0.178861 0.021463 0.152357
v 0.268381 0.221788 0.152357
v 0.178861 -0.279023 -0.169593
v 0.178861 -0.314796 0.152357
v 0.178861 0.007154 -0.169593
v 0.178861 0.007154 0.116584
v 0.178861 -0.279023 0.116584
v -0.178861 -0.314796 0.152357
v -0.178861 -0.279023 0.116584
v -0.178861 0.007154 0.116584
v -0.178861 0.007154 -0.169593
v -0.178861 -0.279023 -0.169593
v -0.143089 -0.279023 0.152357
v 0.143089 -0.279023 0.152357
v 0.143089 0.007154 0.152357
v -0.143089 0.007154 0.152357
v -0.143089 0.007154 0.116584
v -0.143089 -0.279023 0.116584
v 0.143089 -0.279023 0.116584
v -0.143089 -0.279023 -0.169593
v 0.143089 -0.279023 -0.169593
v 0.143089 0.007154 0.116584
v 0.143089 0.007154 -0.169593
v -0.143089 0.007154 -0.169593

# 0 UV coordinates

# 12 vertex normals
vn 1.83182e-17 0 -0.0254
vn 0 0.0254 0
vn -0.0254 0 0
vn -0 -0 -0.0254
vn 0.0254 0 0
vn 0 0 0.0254
vn 0 -0.0254 0
vn -1.83182e-17 0 0.0254
vn 0.0254 0 1.14603e-17
vn 0.0254 0 -1.14603e-17
vn -0.0254 -0 -1.14603e-17
vn -0.0254 0 1.14603e-17

# Mesh 'chair__ID4' with 82 faces
g chair__ID4
usemtl material
f  1//1 2//1 3//1
f  2//1 1//1 4//1
f  2//2 5//2 6//2
f  5//2 2//2 4//2
f  7//3 2//3 8//3
f  2//3 7//3 9//3
f  2//3 9//3 3//3
f  6//3 8//3 2//3
f  9//2 1//2 3//2
f  1//2 9//2 10//2
f  10//2 9//2 11//2
f  11//2 9//2 12//2
f  10//4 4//4 1//4
f  4//4 10//4 13//4
f  13//4 10//4 14//4
f  14//4 10//4 15//4
f  5//5 13//5 16//5
f  13//5 5//5 4//5
f  5//4 8//4 6//4
f  8//4 5//4 17//4
f  17//4 5//4 16//4
f  17//4 16//4 18//4
f  17//4 18//4 19//4
f  17//4 19//4 20//4
f  19//4 18//4 21//4
f  21//4 18//4 22//4
f  20//4 23//4 24//4
f  23//4 20//4 19//4
f  24//4 23//4 22//4
f  24//4 22//4 18//4
f  24//4 18//4 25//4
f  26//4 18//4 27//4
f  18//4 26//4 25//4
f  25//4 26//4 28//4
f  29//6 9//6 7//6
f  9//6 29//6 12//6
f  29//7 25//7 28//7
f  25//7 29//7 30//7
f  30//7 29//7 31//7
f  31//7 8//7 17//7
f  8//7 31//7 7//7
f  7//7 31//7 29//7
f  26//5 29//5 28//5
f  29//5 26//5 32//5
f  29//5 32//5 12//5
f  12//5 32//5 11//5
f  11//4 15//4 10//4
f  15//4 11//4 32//4
f  13//2 18//2 16//2
f  18//2 13//2 14//2
f  30//6 13//6 31//6
f  13//6 30//6 14//6
f  15//3 18//3 14//3
f  18//3 15//3 27//3
f  15//2 26//2 27//2
f  26//2 15//2 32//2
f  24//5 33//5 34//5
f  33//5 24//5 25//5
f  33//5 25//5 35//5
f  35//5 25//5 36//5
f  34//5 37//5 30//5
f  37//5 34//5 33//5
f  30//5 37//5 36//5
f  30//5 36//5 25//5
f  34//7 20//7 24//7
f  20//7 34//7 38//7
f  38//3 39//3 20//3
f  39//3 38//3 31//3
f  39//3 31//3 40//3
f  40//3 31//3 41//3
f  20//3 42//3 17//3
f  42//3 20//3 39//3
f  17//3 42//3 41//3
f  17//3 41//3 31//3
f  38//6 43//6 31//6
f  43//6 38//6 34//6
f  43//6 34//6 44//6
f  44//6 34//6 45//6
f  31//6 46//6 30//6
f  46//6 31//6 43//6
f  30//6 46//6 45//6
f  30//6 45//6 34//6

# Mesh 'chair__ID4' with 82 faces
g chair__ID4
usemtl material_0
f  4//8 1//8 2//8
f  3//8 2//8 1//8
f  4//7 2//7 5//7
f  6//7 5//7 2//7
f  2//5 8//5 6//5
f  3//5 9//5 2//5
f  9//5 7//5 2//5
f  8//5 2//5 7//5
f  12//7 9//7 11//7
f  11//7 9//7 10//7
f  10//7 9//7 1//7
f  3//7 1//7 9//7
f  15//6 10//6 14//6
f  14//6 10//6 13//6
f  13//6 10//6 4//6
f  1//6 4//6 10//6
f  4//3 5//3 13//3
f  16//3 13//3 5//3
f  28//6 26//6 25//6
f  25//6 26//6 18//6
f  27//6 18//6 26//6
f  25//6 18//6 24//6
f  18//6 22//6 24//6
f  22//6 23//6 24//6
f  19//6 20//6 23//6
f  24//6 23//6 20//6
f  22//6 18//6 21//6
f  21//6 18//6 19//6
f  20//6 19//6 17//6
f  19//6 18//6 17//6
f  18//6 16//6 17//6
f  16//6 5//6 17//6
f  17//6 5//6 8//6
f  6//6 8//6 5//6
f  12//4 29//4 9//4
f  7//4 9//4 29//4
f  29//2 31//2 7//2
f  7//2 31//2 8//2
f  17//2 8//2 31//2
f  31//2 29//2 30//2
f  30//2 29//2 25//2
f  28//2 25//2 29//2
f  11//3 32//3 12//3
f  12//3 32//3 29//3
f  32//3 26//3 29//3
f  28//3 29//3 26//3
f  32//6 11//6 15//6
f  10//6 15//6 11//6
f  14//7 13//7 18//7
f  16//7 18//7 13//7
f  14//4 30//4 13//4
f  31//4 13//4 30//4
f  27//5 15//5 18//5
f  14//5 18//5 15//5
f  32//7 15//7 26//7
f  27//7 26//7 15//7
f  25//3 36//3 30//3
f  36//3 37//3 30//3
f  33//3 34//3 37//3
f  30//3 37//3 34//3
f  36//3 25//3 35//3
f  35//3 25//3 33//3
f  25//3 24//3 33//3
f  34//3 33//3 24//3
f  38//2 34//2 20//2
f  24//2 20//2 34//2
f  31//5 41//5 17//5
f  41//5 42//5 17//5
f  39//5 20//5 42//5
f  17//5 42//5 20//5
f  41//5 31//5 40//5
f  40//5 31//5 39//5
f  31//5 38//5 39//5
f  20//5 39//5 38//5
f  34//4 45//4 30//4
f  45//4 46//4 30//4
f  43//4 31//4 46//4
f  30//4 46//4 31//4
f  45//4 34//4 44//4
f  44//4 34//4 43//4
f  34//4 38//4 43//4
f  31//4 43//4 38//4

# Mesh 'chair__ID14' with 36 faces
g chair__ID14
usemtl material
f  47//9 43//9 48//9
f  43//9 47//9 46//9
f  43//2 49//2 48//2
f  49//2 43//2 44//2
f  39//2 50//2 42//2
f  50//2 39//2 51//2
f  51//2 39//2 33//2
f  33//2 39//2 37//2
f  37//2 39//2 48//2
f  37//2 48//2 49//2
f  50//2 22//2 23//2
f  22//2 50//2 51//2
f  47//4 39//4 40//4
f  39//4 47//4 48//4
f  45//7 47//7 52//7
f  47//7 45//7 46//7
f  36//7 53//7 35//7
f  53//7 36//7 54//7
f  54//7 36//7 41//7
f  41//7 36//7 40//7
f  40//7 36//7 52//7
f  40//7 52//7 47//7
f  53//7 19//7 21//7
f  19//7 53//7 54//7
f  19//10 50//10 23//10
f  50//10 19//10 54//10
f  50//6 41//6 42//6
f  41//6 50//6 54//6
f  45//3 49//3 44//3
f  49//3 45//3 52//3
f  36//4 49//4 52//4
f  49//4 36//4 37//4
f  33//6 53//6 51//6
f  53//6 33//6 35//6
f  53//3 22//3 51//3
f  22//3 53//3 21//3

# Mesh 'chair__ID14' with 36 faces
g chair__ID14
usemtl material_0
f  46//11 47//11 43//11
f  48//11 43//11 47//11
f  51//7 50//7 22//7
f  23//7 22//7 50//7
f  49//7 48//7 37//7
f  48//7 39//7 37//7
f  37//7 39//7 33//7
f  33//7 39//7 51//7
f  51//7 39//7 50//7
f  42//7 50//7 39//7
f  44//7 43//7 49//7
f  48//7 49//7 43//7
f  48//6 47//6 39//6
f  40//6 39//6 47//6
f  54//2 53//2 19//2
f  21//2 19//2 53//2
f  47//2 52//2 40//2
f  52//2 36//2 40//2
f  40//2 36//2 41//2
f  41//2 36//2 54//2
f  54//2 36//2 53//2
f  35//2 53//2 36//2
f  46//2 45//2 47//2
f  52//2 47//2 45//2
f  54//12 19//12 50//12
f  23//12 50//12 19//12
f  54//4 50//4 41//4
f  42//4 41//4 50//4
f  52//5 45//5 49//5
f  44//5 49//5 45//5
f  37//6 36//6 49//6
f  52//6 49//6 36//6
f  35//4 33//4 53//4
f  51//4 53//4 33//4
f  21//5 53//5 22//5
f  51//5 22//5 53//5

